<svg width="48" height="48" viewBox="0 0 48 48" fill="none" xmlns="http://www.w3.org/2000/svg">
<path d="M16 28.7999C16 29.1999 16.2 29.5999 16.6 29.7999L21.6 32.7999C22.2 33.1999 22.8 32.7999 22.8 32.1999V26.5999C22.8 26.3999 22.6 25.9999 22.4 25.9999L17.2 22.5999C16.8 22.3999 16 22.7999 16 23.3999V28.7999Z" fill="#091E42"/>
<path d="M23.5999 26.3997V31.9997C23.5999 32.5997 24.1999 32.9997 24.7999 32.5997L29.7999 29.5997C30.1999 29.3997 30.3999 28.9997 30.3999 28.5997V23.3997C30.3999 22.7997 29.7999 22.3997 29.1999 22.7997L23.9999 25.5997C23.7999 25.7997 23.5999 25.9997 23.5999 26.3997Z" fill="#091E42"/>
<path d="M29.2 21.7998L23.6 24.9998C23.4 25.1998 23 25.1998 22.8 24.9998L17.2 21.7998C16.6 21.3998 16.6 20.7998 17.2 20.3998L22.8 17.1998C23 16.9998 23.4 16.9998 23.6 17.1998L29.2 20.3998C29.8 20.5998 29.8 21.3998 29.2 21.7998Z" fill="#36B37E"/>
<path d="M4 40.0001C4 40.4001 4.2 40.8001 4.6 41.0001L9.6 44.0001C10.2 44.4001 10.8 44.0001 10.8 43.4001V37.8001C10.8 37.6001 10.6 37.2001 10.4 37.2001L5.2 34.2001C4.6 33.8001 4 34.2001 4 34.8001V40.0001H4Z" fill="#091E42"/>
<path d="M11.5999 37.4003V43.0003C11.5999 43.6003 12.1999 44.0003 12.7999 43.6003L17.7999 40.6003C18.1999 40.4003 18.3999 40.0003 18.3999 39.6003V34.0003C18.3999 33.4003 17.7999 33.0003 17.1999 33.4003L11.9999 36.8003C11.7999 37.0003 11.5999 37.2003 11.5999 37.4003Z" fill="#091E42"/>
<path d="M17.2 32.7998L11.6 35.9998C11.4 36.1998 11 36.1998 10.8 35.9998L5.2 32.7998C4.6 32.3998 4.6 31.7998 5.2 31.3998L10.8 28.1998C11 27.9998 11.4 27.9998 11.6 28.1998L17.2 31.3998C17.6 31.7998 17.6 32.5998 17.2 32.7998Z" fill="#36B37E"/>
<path d="M28.2002 40.0001C28.2002 40.4001 28.4002 40.8001 28.8002 41.0001L33.8002 44.0001C34.4002 44.4001 35.0002 44.0001 35.0002 43.4001V37.8001C35.0002 37.6001 34.8002 37.2001 34.6002 37.2001L29.4002 34.2001C28.8002 33.8001 28.2002 34.2001 28.2002 34.8001V40.0001Z" fill="#091E42"/>
<path d="M35.5999 37.4003V43.0003C35.5999 43.6003 36.1999 44.0003 36.7999 43.6003L41.7999 40.6003C42.1999 40.4003 42.3999 40.0003 42.3999 39.6003V34.0003C42.3999 33.4003 41.7999 33.0003 41.1999 33.4003L35.9999 36.8003C35.7999 37.0003 35.5999 37.2003 35.5999 37.4003Z" fill="#091E42"/>
<path d="M41.2 32.7998L35.6 35.9998C35.4 36.1998 35 36.1998 34.8 35.9998L29.2 32.7998C28.6 32.3998 28.6 31.7998 29.2 31.3998L34.8 28.1998C35 27.9998 35.4 27.9998 35.6 28.1998L41.2 31.3998C41.8 31.7998 41.8 32.5998 41.2 32.7998Z" fill="#36B37E"/>
<path d="M4 17.8005C4 18.2005 4.2 18.6005 4.6 18.8005L9.6 21.8005C10 22.0005 10.8 21.6005 10.8 21.0005V15.2005C10.8 15.0005 10.6 14.6005 10.4 14.6005L5.2 11.6005C4.6 11.4005 4 11.6005 4 12.4005V17.8005Z" fill="#091E42"/>
<path d="M11.5999 15.1997V20.7997C11.5999 21.3997 12.1999 21.7997 12.7999 21.3997L17.7999 18.3997C18.1999 18.1997 18.3999 17.7997 18.3999 17.3997V12.3997C18.3999 11.7997 17.7999 11.3997 17.1999 11.7997L11.9999 14.5997C11.7999 14.7997 11.5999 14.9997 11.5999 15.1997Z" fill="#091E42"/>
<path d="M17.2 10.6L11.6 13.8C11.4 14 11 14 10.8 13.8L5.2 10.6C4.6 10.2 4.6 9.6 5.2 9.2L10.8 6C11 6 11.4 6 11.6 6.2L17.2 9.4C17.6 9.6 17.6 10.4 17.2 10.6Z" fill="#36B37E"/>
<path d="M28.2002 17.8005C28.2002 18.2005 28.4002 18.6005 28.8002 18.8005L33.8002 21.8005C34.4002 22.2005 35.0002 21.8005 35.0002 21.2005V15.2005C35.0002 15.0005 34.8002 14.6005 34.6002 14.6005L29.4002 11.6005C28.8002 11.2005 28.2002 11.6005 28.2002 12.2005V17.8005Z" fill="#091E42"/>
<path d="M35.5999 15.1997V20.7997C35.5999 21.3997 36.1999 21.7997 36.7999 21.3997L41.7999 18.3997C42.1999 18.1997 42.3999 17.7997 42.3999 17.3997V12.3997C42.3999 11.7997 41.7999 11.3997 41.1999 11.7997L35.9999 14.5997C35.7999 14.7997 35.5999 14.9997 35.5999 15.1997Z" fill="#091E42"/>
<path d="M41.2 10.5998L35.6 13.9998C35.4 13.9998 35.2 13.9998 34.8 13.9998L29.2 10.7998C28.6 10.3998 28.6 9.7998 29.2 9.3998L34.8 6.1998C35 5.9998 35.4 5.9998 35.6 6.1998L41.2 9.3998C41.8 9.5998 41.8 10.3998 41.2 10.5998Z" fill="#36B37E"/>
</svg>
