<svg width="48" height="48" viewBox="0 0 48 48" fill="none" xmlns="http://www.w3.org/2000/svg">
<g clip-path="url(#clip0_34_2400)">
<path d="M36.2702 22.8957H45.7041C45.8515 22.8957 45.9989 22.7486 45.9989 22.6014C45.3355 12.7419 38.1865 4.57465 28.7526 2.51445C28.5315 2.44087 28.3104 2.73519 28.5315 2.95592C32.9536 7.88569 35.7543 14.9492 36.0491 22.675C35.9754 22.8221 36.1228 22.8957 36.2702 22.8957Z" fill="#091E42"/>
<path d="M24.1841 2C24.1104 2 24.0367 2 23.963 2C23.8893 2 23.8156 2 23.7419 2C18.0668 6.34114 14.5292 14.0669 14.1606 22.602C14.1606 22.7492 14.308 22.8963 14.4555 22.8963H33.4705C33.6179 22.8963 33.7653 22.7492 33.7653 22.602C33.4705 14.0669 29.8591 6.34114 24.1841 2Z" fill="#36B37E"/>
<path d="M14.4555 25.1035C14.308 25.1035 14.1606 25.2507 14.1606 25.3978C14.5292 34.0065 18.0668 41.6587 23.7419 45.9998C23.8156 45.9998 23.8893 45.9998 23.963 45.9998C24.0367 45.9998 24.1104 45.9998 24.1841 45.9998C29.8591 41.6587 33.3968 33.9329 33.7653 25.3978C33.7653 25.2507 33.6179 25.1035 33.4705 25.1035H14.4555Z" fill="#091E42"/>
<path d="M35.9754 25.3243C35.6806 33.05 32.9536 40.1136 28.5315 45.0433C28.3841 45.2641 28.5315 45.5584 28.7526 45.4848C38.1864 43.4246 45.4092 35.2574 45.9988 25.3978C45.9988 25.2507 45.8514 25.1035 45.704 25.1035H36.2702C36.1228 25.1035 35.9754 25.2507 35.9754 25.3243Z" fill="#36B37E"/>
<path d="M11.7282 25.1035H2.29432C2.14692 25.1035 1.99951 25.2507 1.99951 25.3978C2.58913 35.2574 9.81191 43.4246 19.2457 45.4848C19.4668 45.5584 19.688 45.2641 19.4668 45.0433C14.971 40.1136 12.2441 33.05 11.9493 25.3243C12.023 25.2507 11.8756 25.1035 11.7282 25.1035Z" fill="#36B37E"/>
<path d="M12.023 22.675C12.3178 14.9492 15.0447 7.88569 19.4668 2.95592C19.6143 2.73519 19.4668 2.44087 19.2457 2.51445C9.81191 4.57465 2.58913 12.7419 1.99951 22.6014C1.99951 22.7486 2.14692 22.8957 2.29432 22.8957H11.7282C11.8756 22.8957 12.023 22.8221 12.023 22.675Z" fill="#091E42"/>
</g>
<defs>
<clipPath id="clip0_34_2400">
<rect width="44" height="44" fill="white" transform="translate(1.99951 2)"/>
</clipPath>
</defs>
</svg>
